# xmcd
# 
# Track frame offsets:
#     150
#     1704
#     16051
#     23545
#     35264
#     48429
#     64605
#     75244
#     86613
#     101551
#     112627
#     129597
#     132732
#     144326
#     156155
#     164551
# 
# Disc length: 2305
# 
# Revision: 2
# Processed by: cddbd v1.5.2PL0 Copyright (c) Steve Scherf et al.
# Submitted via: fre:ac v1.0.31
# 
DISCID=b408ff10
DTITLE=Bob Dylan - The Bootleg Series, Vol. 15  Travelin' Thru 1967-1969 Disc 3
DYEAR=2019
DGENRE=Rock/Pop
TTITLE0=Studio Chatter
TTITLE1=Wanted Man (Take 1)
TTITLE2=Amen (Rehearsal)
TTITLE3=Just A Closer Walk With Thee (Take 1)
TTITLE4=Jimmie Rodgers Medley No. 1 (Take 1)
TTITLE5=Jimmie Rodgers Medley No. 2 (Take 2)
TTITLE6=I Threw It All Away (Live On The Johnny Cash Show)
TTITLE7=Living The Blues (Live On The Johnny Cash Show)
TTITLE8=Girl From The North Country (Live On The Johnny Cash Show)
TTITLE9=Ring Of Fire (Self Portrait Sessions)
TTITLE10=Folsom Prison Blues (Self Portrait Sessions)
TTITLE11=Earl Scruggs Interview (with Earl Scruggs)
TTITLE12=East Virginia Blues (with Earl Scruggs)
TTITLE13=To Be Alone With You (with Earl Scruggs)
TTITLE14=Honey, Just Allow Me One More Chance (with Earl Scruggs)
TTITLE15=Nashville Skyline Rag (with Earl Scruggs)
EXTD=
EXTT0=
EXTT1=
EXTT2=
EXTT3=
EXTT4=
EXTT5=
EXTT6=
EXTT7=
EXTT8=
EXTT9=
EXTT10=
EXTT11=
EXTT12=
EXTT13=
EXTT14=
EXTT15=
PLAYORDER=
